<mxfile host="app.diagrams.net" modified="2021-08-30T23:57:21.692Z" agent="5.0 (Windows NT 10.0; Win64; x64) AppleWebKit/537.36 (KHTML, like Gecko) Chrome/92.0.4515.159 Safari/537.36" etag="Cxbs42dgcTl7PYVByjZk" version="14.9.8" type="github">
  <diagram id="Hxg1LvmOTA6-OSsHxbgO" name="Page-1">
    <mxGraphModel dx="1420" dy="806" grid="1" gridSize="10" guides="1" tooltips="1" connect="1" arrows="1" fold="1" page="1" pageScale="1" pageWidth="1654" pageHeight="1169" math="0" shadow="0">
      <root>
        <mxCell id="0" />
        <mxCell id="1" parent="0" />
        <mxCell id="SxerZl9bnRF9Uj3qdwix-1" value="Contrutora" style="rounded=0;whiteSpace=wrap;html=1;" vertex="1" parent="1">
          <mxGeometry x="390" y="130" width="120" height="60" as="geometry" />
        </mxCell>
        <mxCell id="SxerZl9bnRF9Uj3qdwix-15" style="edgeStyle=orthogonalEdgeStyle;rounded=0;orthogonalLoop=1;jettySize=auto;html=1;exitX=1;exitY=0.5;exitDx=0;exitDy=0;entryX=0;entryY=0.5;entryDx=0;entryDy=0;endArrow=none;endFill=0;" edge="1" parent="1" source="SxerZl9bnRF9Uj3qdwix-2" target="SxerZl9bnRF9Uj3qdwix-12">
          <mxGeometry relative="1" as="geometry" />
        </mxCell>
        <mxCell id="SxerZl9bnRF9Uj3qdwix-2" value="Departamentos" style="rounded=0;whiteSpace=wrap;html=1;" vertex="1" parent="1">
          <mxGeometry x="390" y="330" width="120" height="60" as="geometry" />
        </mxCell>
        <mxCell id="SxerZl9bnRF9Uj3qdwix-3" value="Projeto" style="rounded=0;whiteSpace=wrap;html=1;" vertex="1" parent="1">
          <mxGeometry x="720" y="330" width="120" height="60" as="geometry" />
        </mxCell>
        <mxCell id="SxerZl9bnRF9Uj3qdwix-24" style="edgeStyle=orthogonalEdgeStyle;rounded=0;orthogonalLoop=1;jettySize=auto;html=1;exitX=1;exitY=0.5;exitDx=0;exitDy=0;endArrow=none;endFill=0;" edge="1" parent="1" source="SxerZl9bnRF9Uj3qdwix-4" target="SxerZl9bnRF9Uj3qdwix-23">
          <mxGeometry relative="1" as="geometry" />
        </mxCell>
        <mxCell id="SxerZl9bnRF9Uj3qdwix-4" value="Empregado" style="rounded=0;whiteSpace=wrap;html=1;" vertex="1" parent="1">
          <mxGeometry x="560" y="470" width="120" height="60" as="geometry" />
        </mxCell>
        <mxCell id="SxerZl9bnRF9Uj3qdwix-13" style="edgeStyle=orthogonalEdgeStyle;rounded=0;orthogonalLoop=1;jettySize=auto;html=1;exitX=1;exitY=0.5;exitDx=0;exitDy=0;endArrow=none;endFill=0;" edge="1" parent="1" source="SxerZl9bnRF9Uj3qdwix-12" target="SxerZl9bnRF9Uj3qdwix-3">
          <mxGeometry relative="1" as="geometry" />
        </mxCell>
        <mxCell id="SxerZl9bnRF9Uj3qdwix-12" value="Coordena" style="rhombus;whiteSpace=wrap;html=1;" vertex="1" parent="1">
          <mxGeometry x="580" y="340" width="80" height="40" as="geometry" />
        </mxCell>
        <mxCell id="SxerZl9bnRF9Uj3qdwix-18" style="edgeStyle=orthogonalEdgeStyle;rounded=0;orthogonalLoop=1;jettySize=auto;html=1;exitX=0.5;exitY=0;exitDx=0;exitDy=0;entryX=0.5;entryY=1;entryDx=0;entryDy=0;endArrow=none;endFill=0;" edge="1" parent="1" source="SxerZl9bnRF9Uj3qdwix-17" target="SxerZl9bnRF9Uj3qdwix-1">
          <mxGeometry relative="1" as="geometry" />
        </mxCell>
        <mxCell id="SxerZl9bnRF9Uj3qdwix-19" style="edgeStyle=orthogonalEdgeStyle;rounded=0;orthogonalLoop=1;jettySize=auto;html=1;exitX=0.5;exitY=1;exitDx=0;exitDy=0;endArrow=none;endFill=0;" edge="1" parent="1" source="SxerZl9bnRF9Uj3qdwix-17" target="SxerZl9bnRF9Uj3qdwix-2">
          <mxGeometry relative="1" as="geometry" />
        </mxCell>
        <mxCell id="SxerZl9bnRF9Uj3qdwix-17" value="Possui" style="rhombus;whiteSpace=wrap;html=1;" vertex="1" parent="1">
          <mxGeometry x="410" y="250" width="80" height="40" as="geometry" />
        </mxCell>
        <mxCell id="SxerZl9bnRF9Uj3qdwix-21" style="edgeStyle=orthogonalEdgeStyle;rounded=0;orthogonalLoop=1;jettySize=auto;html=1;exitX=1;exitY=0.5;exitDx=0;exitDy=0;endArrow=none;endFill=0;" edge="1" parent="1" source="SxerZl9bnRF9Uj3qdwix-20" target="SxerZl9bnRF9Uj3qdwix-4">
          <mxGeometry relative="1" as="geometry" />
        </mxCell>
        <mxCell id="SxerZl9bnRF9Uj3qdwix-22" style="edgeStyle=orthogonalEdgeStyle;rounded=0;orthogonalLoop=1;jettySize=auto;html=1;exitX=0.5;exitY=0;exitDx=0;exitDy=0;endArrow=none;endFill=0;" edge="1" parent="1" source="SxerZl9bnRF9Uj3qdwix-20" target="SxerZl9bnRF9Uj3qdwix-2">
          <mxGeometry relative="1" as="geometry" />
        </mxCell>
        <mxCell id="SxerZl9bnRF9Uj3qdwix-20" value="Possui" style="rhombus;whiteSpace=wrap;html=1;" vertex="1" parent="1">
          <mxGeometry x="410" y="480" width="80" height="40" as="geometry" />
        </mxCell>
        <mxCell id="SxerZl9bnRF9Uj3qdwix-25" style="edgeStyle=orthogonalEdgeStyle;rounded=0;orthogonalLoop=1;jettySize=auto;html=1;exitX=0.5;exitY=0;exitDx=0;exitDy=0;endArrow=none;endFill=0;" edge="1" parent="1" source="SxerZl9bnRF9Uj3qdwix-23" target="SxerZl9bnRF9Uj3qdwix-3">
          <mxGeometry relative="1" as="geometry" />
        </mxCell>
        <mxCell id="SxerZl9bnRF9Uj3qdwix-23" value="Possui" style="rhombus;whiteSpace=wrap;html=1;" vertex="1" parent="1">
          <mxGeometry x="740" y="480" width="80" height="40" as="geometry" />
        </mxCell>
        <mxCell id="SxerZl9bnRF9Uj3qdwix-26" value="1" style="text;html=1;strokeColor=none;fillColor=none;align=center;verticalAlign=middle;whiteSpace=wrap;rounded=0;" vertex="1" parent="1">
          <mxGeometry x="520" y="330" width="40" height="20" as="geometry" />
        </mxCell>
        <mxCell id="SxerZl9bnRF9Uj3qdwix-27" value="1..N" style="text;html=1;strokeColor=none;fillColor=none;align=center;verticalAlign=middle;whiteSpace=wrap;rounded=0;" vertex="1" parent="1">
          <mxGeometry x="670" y="330" width="40" height="20" as="geometry" />
        </mxCell>
        <mxCell id="SxerZl9bnRF9Uj3qdwix-28" value="Text" style="text;html=1;strokeColor=none;fillColor=none;align=center;verticalAlign=middle;whiteSpace=wrap;rounded=0;" vertex="1" parent="1">
          <mxGeometry x="450" y="400" width="40" height="20" as="geometry" />
        </mxCell>
        <mxCell id="SxerZl9bnRF9Uj3qdwix-29" value="1..N" style="text;html=1;strokeColor=none;fillColor=none;align=center;verticalAlign=middle;whiteSpace=wrap;rounded=0;" vertex="1" parent="1">
          <mxGeometry x="410" y="300" width="40" height="20" as="geometry" />
        </mxCell>
        <mxCell id="SxerZl9bnRF9Uj3qdwix-30" value="1..N" style="text;html=1;strokeColor=none;fillColor=none;align=center;verticalAlign=middle;whiteSpace=wrap;rounded=0;" vertex="1" parent="1">
          <mxGeometry x="510" y="480" width="40" height="20" as="geometry" />
        </mxCell>
        <mxCell id="SxerZl9bnRF9Uj3qdwix-31" value="1..N" style="text;html=1;strokeColor=none;fillColor=none;align=center;verticalAlign=middle;whiteSpace=wrap;rounded=0;" vertex="1" parent="1">
          <mxGeometry x="690" y="470" width="40" height="20" as="geometry" />
        </mxCell>
        <mxCell id="SxerZl9bnRF9Uj3qdwix-32" value="1..N" style="text;html=1;strokeColor=none;fillColor=none;align=center;verticalAlign=middle;whiteSpace=wrap;rounded=0;" vertex="1" parent="1">
          <mxGeometry x="787" y="400" width="40" height="20" as="geometry" />
        </mxCell>
        <mxCell id="SxerZl9bnRF9Uj3qdwix-33" value="1" style="text;html=1;strokeColor=none;fillColor=none;align=center;verticalAlign=middle;whiteSpace=wrap;rounded=0;" vertex="1" parent="1">
          <mxGeometry x="410" y="200" width="40" height="20" as="geometry" />
        </mxCell>
        <mxCell id="SxerZl9bnRF9Uj3qdwix-62" style="edgeStyle=orthogonalEdgeStyle;rounded=0;orthogonalLoop=1;jettySize=auto;html=1;exitX=0;exitY=0.5;exitDx=0;exitDy=0;endArrow=none;endFill=0;" edge="1" parent="1" source="SxerZl9bnRF9Uj3qdwix-36" target="SxerZl9bnRF9Uj3qdwix-3">
          <mxGeometry relative="1" as="geometry" />
        </mxCell>
        <mxCell id="SxerZl9bnRF9Uj3qdwix-36" value="" style="ellipse;whiteSpace=wrap;html=1;aspect=fixed;fillColor=#030303;" vertex="1" parent="1">
          <mxGeometry x="860" y="330" width="20" height="20" as="geometry" />
        </mxCell>
        <mxCell id="SxerZl9bnRF9Uj3qdwix-63" style="edgeStyle=orthogonalEdgeStyle;rounded=0;orthogonalLoop=1;jettySize=auto;html=1;exitX=0;exitY=0.5;exitDx=0;exitDy=0;endArrow=none;endFill=0;" edge="1" parent="1" source="SxerZl9bnRF9Uj3qdwix-37" target="SxerZl9bnRF9Uj3qdwix-3">
          <mxGeometry relative="1" as="geometry" />
        </mxCell>
        <mxCell id="SxerZl9bnRF9Uj3qdwix-37" value="" style="ellipse;whiteSpace=wrap;html=1;aspect=fixed;" vertex="1" parent="1">
          <mxGeometry x="860" y="360" width="20" height="20" as="geometry" />
        </mxCell>
        <mxCell id="SxerZl9bnRF9Uj3qdwix-61" style="edgeStyle=orthogonalEdgeStyle;rounded=0;orthogonalLoop=1;jettySize=auto;html=1;exitX=0;exitY=0.5;exitDx=0;exitDy=0;endArrow=none;endFill=0;" edge="1" parent="1" source="SxerZl9bnRF9Uj3qdwix-38" target="SxerZl9bnRF9Uj3qdwix-1">
          <mxGeometry relative="1" as="geometry" />
        </mxCell>
        <mxCell id="SxerZl9bnRF9Uj3qdwix-38" value="" style="ellipse;whiteSpace=wrap;html=1;aspect=fixed;fillColor=#030303;" vertex="1" parent="1">
          <mxGeometry x="530" y="140" width="20" height="20" as="geometry" />
        </mxCell>
        <mxCell id="SxerZl9bnRF9Uj3qdwix-60" style="edgeStyle=orthogonalEdgeStyle;rounded=0;orthogonalLoop=1;jettySize=auto;html=1;exitX=0;exitY=0.5;exitDx=0;exitDy=0;endArrow=none;endFill=0;" edge="1" parent="1" source="SxerZl9bnRF9Uj3qdwix-39" target="SxerZl9bnRF9Uj3qdwix-1">
          <mxGeometry relative="1" as="geometry" />
        </mxCell>
        <mxCell id="SxerZl9bnRF9Uj3qdwix-39" value="" style="ellipse;whiteSpace=wrap;html=1;aspect=fixed;" vertex="1" parent="1">
          <mxGeometry x="530" y="170" width="20" height="20" as="geometry" />
        </mxCell>
        <mxCell id="SxerZl9bnRF9Uj3qdwix-59" style="edgeStyle=orthogonalEdgeStyle;rounded=0;orthogonalLoop=1;jettySize=auto;html=1;exitX=1;exitY=0.5;exitDx=0;exitDy=0;endArrow=none;endFill=0;" edge="1" parent="1" source="SxerZl9bnRF9Uj3qdwix-40" target="SxerZl9bnRF9Uj3qdwix-2">
          <mxGeometry relative="1" as="geometry" />
        </mxCell>
        <mxCell id="SxerZl9bnRF9Uj3qdwix-40" value="" style="ellipse;whiteSpace=wrap;html=1;aspect=fixed;fillColor=#030303;" vertex="1" parent="1">
          <mxGeometry x="350" y="330" width="20" height="20" as="geometry" />
        </mxCell>
        <mxCell id="SxerZl9bnRF9Uj3qdwix-58" style="edgeStyle=orthogonalEdgeStyle;rounded=0;orthogonalLoop=1;jettySize=auto;html=1;exitX=1;exitY=0.5;exitDx=0;exitDy=0;endArrow=none;endFill=0;" edge="1" parent="1" source="SxerZl9bnRF9Uj3qdwix-41" target="SxerZl9bnRF9Uj3qdwix-2">
          <mxGeometry relative="1" as="geometry" />
        </mxCell>
        <mxCell id="SxerZl9bnRF9Uj3qdwix-41" value="" style="ellipse;whiteSpace=wrap;html=1;aspect=fixed;" vertex="1" parent="1">
          <mxGeometry x="350" y="360" width="20" height="20" as="geometry" />
        </mxCell>
        <mxCell id="SxerZl9bnRF9Uj3qdwix-56" style="edgeStyle=orthogonalEdgeStyle;rounded=0;orthogonalLoop=1;jettySize=auto;html=1;exitX=0;exitY=0.5;exitDx=0;exitDy=0;entryX=0;entryY=1;entryDx=0;entryDy=0;endArrow=none;endFill=0;" edge="1" parent="1" source="SxerZl9bnRF9Uj3qdwix-42" target="SxerZl9bnRF9Uj3qdwix-4">
          <mxGeometry relative="1" as="geometry" />
        </mxCell>
        <mxCell id="SxerZl9bnRF9Uj3qdwix-42" value="" style="ellipse;whiteSpace=wrap;html=1;aspect=fixed;fillColor=#030303;" vertex="1" parent="1">
          <mxGeometry x="580" y="540" width="20" height="20" as="geometry" />
        </mxCell>
        <mxCell id="SxerZl9bnRF9Uj3qdwix-57" style="edgeStyle=orthogonalEdgeStyle;rounded=0;orthogonalLoop=1;jettySize=auto;html=1;exitX=0;exitY=0.5;exitDx=0;exitDy=0;endArrow=none;endFill=0;" edge="1" parent="1" source="SxerZl9bnRF9Uj3qdwix-43">
          <mxGeometry relative="1" as="geometry">
            <mxPoint x="560" y="520" as="targetPoint" />
          </mxGeometry>
        </mxCell>
        <mxCell id="SxerZl9bnRF9Uj3qdwix-43" value="" style="ellipse;whiteSpace=wrap;html=1;aspect=fixed;" vertex="1" parent="1">
          <mxGeometry x="580" y="574.5" width="20" height="20" as="geometry" />
        </mxCell>
        <mxCell id="SxerZl9bnRF9Uj3qdwix-64" style="edgeStyle=orthogonalEdgeStyle;rounded=0;orthogonalLoop=1;jettySize=auto;html=1;exitX=0;exitY=0.5;exitDx=0;exitDy=0;entryX=1;entryY=0.5;entryDx=0;entryDy=0;endArrow=none;endFill=0;" edge="1" parent="1" source="SxerZl9bnRF9Uj3qdwix-44" target="SxerZl9bnRF9Uj3qdwix-23">
          <mxGeometry relative="1" as="geometry" />
        </mxCell>
        <mxCell id="SxerZl9bnRF9Uj3qdwix-44" value="" style="ellipse;whiteSpace=wrap;html=1;aspect=fixed;" vertex="1" parent="1">
          <mxGeometry x="860" y="480" width="20" height="20" as="geometry" />
        </mxCell>
        <mxCell id="SxerZl9bnRF9Uj3qdwix-65" style="edgeStyle=orthogonalEdgeStyle;rounded=0;orthogonalLoop=1;jettySize=auto;html=1;exitX=0;exitY=0.5;exitDx=0;exitDy=0;endArrow=none;endFill=0;" edge="1" parent="1" source="SxerZl9bnRF9Uj3qdwix-45">
          <mxGeometry relative="1" as="geometry">
            <mxPoint x="820" y="500" as="targetPoint" />
            <Array as="points">
              <mxPoint x="860" y="500" />
            </Array>
          </mxGeometry>
        </mxCell>
        <mxCell id="SxerZl9bnRF9Uj3qdwix-45" value="" style="ellipse;whiteSpace=wrap;html=1;aspect=fixed;" vertex="1" parent="1">
          <mxGeometry x="860" y="510" width="20" height="20" as="geometry" />
        </mxCell>
        <mxCell id="SxerZl9bnRF9Uj3qdwix-46" value="Cod_Proj" style="text;html=1;strokeColor=none;fillColor=none;align=center;verticalAlign=middle;whiteSpace=wrap;rounded=0;" vertex="1" parent="1">
          <mxGeometry x="890" y="330" width="40" height="20" as="geometry" />
        </mxCell>
        <mxCell id="SxerZl9bnRF9Uj3qdwix-47" value="Nome" style="text;html=1;strokeColor=none;fillColor=none;align=center;verticalAlign=middle;whiteSpace=wrap;rounded=0;" vertex="1" parent="1">
          <mxGeometry x="890" y="360" width="40" height="20" as="geometry" />
        </mxCell>
        <mxCell id="SxerZl9bnRF9Uj3qdwix-48" value="Nome" style="text;html=1;strokeColor=none;fillColor=none;align=center;verticalAlign=middle;whiteSpace=wrap;rounded=0;" vertex="1" parent="1">
          <mxGeometry x="890" y="480" width="40" height="20" as="geometry" />
        </mxCell>
        <mxCell id="SxerZl9bnRF9Uj3qdwix-49" value="Carga Horária" style="text;html=1;strokeColor=none;fillColor=none;align=center;verticalAlign=middle;whiteSpace=wrap;rounded=0;" vertex="1" parent="1">
          <mxGeometry x="890" y="510" width="40" height="20" as="geometry" />
        </mxCell>
        <mxCell id="SxerZl9bnRF9Uj3qdwix-50" value="CPF" style="text;html=1;strokeColor=none;fillColor=none;align=center;verticalAlign=middle;whiteSpace=wrap;rounded=0;" vertex="1" parent="1">
          <mxGeometry x="610" y="540" width="40" height="20" as="geometry" />
        </mxCell>
        <mxCell id="SxerZl9bnRF9Uj3qdwix-51" value="Nome" style="text;html=1;strokeColor=none;fillColor=none;align=center;verticalAlign=middle;whiteSpace=wrap;rounded=0;" vertex="1" parent="1">
          <mxGeometry x="610" y="574.5" width="40" height="20" as="geometry" />
        </mxCell>
        <mxCell id="SxerZl9bnRF9Uj3qdwix-52" value="Nome" style="text;html=1;strokeColor=none;fillColor=none;align=center;verticalAlign=middle;whiteSpace=wrap;rounded=0;" vertex="1" parent="1">
          <mxGeometry x="300" y="360" width="40" height="20" as="geometry" />
        </mxCell>
        <mxCell id="SxerZl9bnRF9Uj3qdwix-53" value="Cod_Dep" style="text;html=1;strokeColor=none;fillColor=none;align=center;verticalAlign=middle;whiteSpace=wrap;rounded=0;" vertex="1" parent="1">
          <mxGeometry x="300" y="330" width="40" height="20" as="geometry" />
        </mxCell>
        <mxCell id="SxerZl9bnRF9Uj3qdwix-54" value="CNPJ" style="text;html=1;strokeColor=none;fillColor=none;align=center;verticalAlign=middle;whiteSpace=wrap;rounded=0;" vertex="1" parent="1">
          <mxGeometry x="560" y="140" width="40" height="20" as="geometry" />
        </mxCell>
        <mxCell id="SxerZl9bnRF9Uj3qdwix-55" value="Nome" style="text;html=1;strokeColor=none;fillColor=none;align=center;verticalAlign=middle;whiteSpace=wrap;rounded=0;" vertex="1" parent="1">
          <mxGeometry x="560" y="170" width="40" height="20" as="geometry" />
        </mxCell>
      </root>
    </mxGraphModel>
  </diagram>
</mxfile>
